<svg width="801" height="663" viewBox="0 0 801 663" fill="none" xmlns="http://www.w3.org/2000/svg">
  <g clip-path="url(#clip0_481_5)">
    <path
      d="M773.203 111.983C816.032 142.009 770.224 272.412 707.678 386.295C644.889 499.782 565.364 596.749 462.031 608.802C358.22 621.149 231.09 549.376 228.263 470.719C225.68 392.458 346.922 307.607 473.276 230.007C599.63 152.407 730.375 81.9555 773.203 111.983Z"
      fill="#FDC84E" />
    <path
      d="M280.617 414.55C258.127 428.015 208.008 379.735 168.862 327.191C129.947 274.618 102.005 217.781 117.701 167.681C133.361 117.299 192.197 73.7138 228.676 88.8087C264.924 103.933 278.78 177.456 288.276 251.822C297.773 326.188 303.107 401.085 280.617 414.55Z"
      fill="#FDC84E" />
    <path
      d="M475.617 414.55C453.127 428.015 403.008 379.735 363.862 327.191C324.947 274.618 297.005 217.781 312.701 167.681C328.361 117.299 387.197 73.7138 423.676 88.8087C459.924 103.933 473.78 177.456 483.276 251.822C492.773 326.188 498.107 401.085 475.617 414.55Z"
      fill="#001D98" />
  </g>
  <defs>
    <clipPath id="clip0_481_5">
      <rect width="815" height="738" fill="white" transform="translate(0 -75)" />
    </clipPath>
  </defs>
</svg>
  